<svg xmlns="http://www.w3.org/2000/svg" viewBox="0 0 156 98.161" fill="none"><ellipse cx="77.5" cy="88.161" rx="67" ry="10" fill="#e2e2e2"/><path d="M23.045 26.568l61.648-11.273v48.966L23.045 75.534z" fill="#bbb" stroke="#82858e" stroke-linejoin="round"/><path d="M132.602 26.568l-47.91-11.273v48.966l47.91 11.273z" fill="#e2e2e2" stroke="#82858e" stroke-linejoin="round"/><path d="M70.955 37.84l61.647-11.272v48.966L70.955 86.807z" fill="#e2e2e2" stroke="#82858e" stroke-linejoin="round"/><path d="M70.955 37.84l-47.91-11.272v48.966l47.91 11.273z" fill="#ececec" stroke="#82858e" stroke-linejoin="round"/><path d="M113.25 58.713c3.052 0 5.54-2.469 5.54-5.512 0-3.043-2.488-5.513-5.54-5.513-3.05 0-5.538 2.476-5.538 5.513 0 3.036 2.48 5.512 5.539 5.512zm0-10.54c2.788 0 5.054 2.254 5.054 5.028 0 2.773-2.266 5.028-5.053 5.028s-5.053-2.255-5.053-5.028c0-2.774 2.266-5.028 5.053-5.028z" fill="#82858e"/><path d="M111.55 53.685a2.559 2.559 0 01-2.565-2.552 2.559 2.559 0 012.565-2.552 2.559 2.559 0 012.565 2.552 2.559 2.559 0 01-2.565 2.552z" fill="#3c3f48"/><path d="M111.133 50.67a1.05 1.05 0 002.099 0 1.05 1.05 0 00-1.05-1.045c-.584 0-1.05.463-1.05 1.044z" fill="#fff"/><path d="M96.695 61.03c3.052 0 5.54-2.476 5.54-5.512 0-3.037-2.488-5.513-5.54-5.513-3.051 0-5.54 2.476-5.54 5.513 0 3.036 2.482 5.512 5.54 5.512zm0-10.54c2.787 0 5.053 2.254 5.053 5.028 0 2.773-2.266 5.028-5.053 5.028s-5.052-2.255-5.052-5.028c0-2.774 2.265-5.028 5.052-5.028z" fill="#82858e"/><path d="M95.344 55.898a2.558 2.558 0 01-2.565-2.552 2.558 2.558 0 012.565-2.552 2.558 2.558 0 012.564 2.552 2.558 2.558 0 01-2.564 2.552z" fill="#3c3f48"/><path d="M95.976 53.927c-.58 0-1.05-.468-1.05-1.044 0-.577.47-1.045 1.05-1.045.58 0 1.049.468 1.049 1.045 0 .576-.47 1.044-1.05 1.044z" fill="#fff"/><path d="M117.534 42.78c-.736 1.026-1.395-.824-3.685-1.403-1.906-.482-3.096.68-3.428-.193-.326-.875 1.19-2.09 3.995-1.56 2.089.395 3.976 1.96 3.118 3.156zM90.89 45.808c.969.848 1.25-1.111 3.45-2.17 1.839-.883 3.289-.007 3.442-.936.152-.92-1.645-1.786-4.386-.659-2.035.842-3.626 2.785-2.505 3.765zM96.036 70.631a.442.442 0 00.287-.098c.008-.01 1.144-.967 3.136-2.01a24.518 24.518 0 018.496-2.623c4.84-.563 7.634 1.25 7.664 1.267a.493.493 0 00.538-.016c.144-.11.136-.284-.023-.388-.121-.082-3.082-2.016-8.3-1.41a25.55 25.55 0 00-8.837 2.732c-2.06 1.082-3.204 2.05-3.25 2.092-.136.115-.113.29.046.383a.424.424 0 00.243.071z" fill="#82858e"/><path d="M96.16 71.612c-.938-.235-1.584-1.162-1.737-2.082a2.752 2.752 0 01-.007-.864c.014-.083.125-.132.2-.11.092.027.126.11.113.2-.12.823.236 1.763.917 2.261.18.132.382.235.605.291.2.041.118.352-.091.304z" fill="#82858e"/><path d="M107.239.5l47.909 11.273-22.546 14.795-47.91-11.273z" fill="#f2f2f2" stroke="#82858e" stroke-linejoin="round"/><path d="M62.148.5L.5 11.773l22.545 14.795 61.648-11.273z" fill="#f2f2f2" stroke="#82858e" stroke-linejoin="round"/><path d="M48.409 27.273L.499 16l22.547 10.568 47.909 11.273z" fill="#e2e2e2" stroke="#82858e" stroke-linejoin="round"/><path d="M93.5 27.273L155.5 16l-22.545 10.568-62 11.273z" fill="#bbb" stroke="#82858e" stroke-linejoin="round"/></svg>